<svg version="1.1" xmlns="http://www.w3.org/2000/svg" width="475" height="512" viewBox="0 0 475 512"><title>calendar</title><path d="M36.572 475.428h82.285v-82.286h-82.285v82.286zM137.143 475.428h91.429v-82.286h-91.428v82.286zM36.572 374.857h82.285v-91.428h-82.285v91.428zM137.143 374.857h91.429v-91.428h-91.428v91.428zM36.572 265.143h82.285v-82.286h-82.285v82.286zM246.857 475.428h91.429v-82.286h-91.428v82.286zM137.143 265.143h91.429v-82.286h-91.428v82.286zM356.572 475.428h82.286v-82.286h-82.286v82.286zM246.857 374.857h91.429v-91.428h-91.428v91.428zM146.286 128v-82.285c0-4.857-4.286-9.143-9.143-9.143h-18.285c-4.857 0-9.143 4.285-9.143 9.143v82.285c0 4.857 4.285 9.143 9.143 9.143h18.285c4.857 0 9.143-4.286 9.143-9.143zM356.572 374.857h82.286v-91.428h-82.286v91.428zM246.857 265.143h91.429v-82.286h-91.428v82.286zM356.572 265.143h82.286v-82.286h-82.286v82.286zM365.714 128v-82.285c0-4.857-4.286-9.143-9.143-9.143h-18.286c-4.857 0-9.143 4.285-9.143 9.143v82.285c0 4.857 4.286 9.143 9.143 9.143h18.286c4.857 0 9.143-4.286 9.143-9.143zM475.428 109.715v365.714c0 20-16.572 36.572-36.572 36.572h-402.286c-20 0-36.572-16.572-36.572-36.572v-365.714c0-20 16.572-36.572 36.572-36.572h36.572v-27.428c0-25.143 20.572-45.715 45.715-45.715h18.286c25.143 0 45.714 20.572 45.714 45.715v27.428h109.714v-27.428c0-25.143 20.572-45.715 45.714-45.715h18.286c25.143 0 45.714 20.572 45.714 45.715v27.428h36.572c20 0 36.572 16.572 36.572 36.572z"></path></svg>