<svg version="1.1" xmlns="http://www.w3.org/2000/svg" width="512" height="512" viewBox="0 0 512 512"><title>spinner</title><path d="M150.286 398.286c0 20-16.286 36.572-36.572 36.572-20 0-36.572-16.572-36.572-36.572 0-20.286 16.572-36.572 36.572-36.572 20.285 0 36.572 16.286 36.572 36.572zM292.572 457.143c0 20.286-16.286 36.572-36.572 36.572s-36.572-16.286-36.572-36.572 16.286-36.572 36.572-36.572 36.572 16.286 36.572 36.572zM91.428 256c0 20.286-16.285 36.572-36.572 36.572s-36.572-16.286-36.572-36.572 16.285-36.572 36.572-36.572 36.572 16.286 36.572 36.572zM434.857 398.286c0 20-16.572 36.572-36.572 36.572-20.286 0-36.572-16.572-36.572-36.572 0-20.286 16.286-36.572 36.572-36.572 20 0 36.572 16.286 36.572 36.572zM159.429 113.715c0 25.143-20.571 45.715-45.715 45.715s-45.715-20.571-45.715-45.715 20.572-45.715 45.715-45.715 45.715 20.572 45.715 45.715zM493.714 256c0 20.286-16.286 36.572-36.572 36.572s-36.572-16.286-36.572-36.572 16.286-36.572 36.572-36.572 36.572 16.286 36.572 36.572zM310.857 54.857c0 30.285-24.572 54.857-54.857 54.857s-54.857-24.572-54.857-54.857 24.571-54.857 54.857-54.857 54.857 24.572 54.857 54.857zM462.286 113.715c0 35.428-28.857 64-64 64-35.428 0-64-28.572-64-64 0-35.143 28.572-64 64-64 35.143 0 64 28.857 64 64z"></path></svg>